<svg xmlns="http://www.w3.org/2000/svg" xmlns:xlink="http://www.w3.org/1999/xlink" viewBox="0 0 693.3469 140.0567">
  <defs>
    <linearGradient id="linear-gradient" x1="-36.8126" y1="83.6829" x2="73.249" y2="-48.5253" gradientTransform="translate(25.9997 1.7204) rotate(55.0017)" gradientUnits="userSpaceOnUse">
      <stop offset="0" stop-color="#00f2ff"/>
      <stop offset="0.5018" stop-color="#8800f0"/>
      <stop offset="1" stop-color="#e127eb"/>
    </linearGradient>
    <linearGradient id="linear-gradient-2" x1="5.9223" y1="119.2592" x2="115.9839" y2="-12.949" gradientTransform="translate(49.9118 -74.1205) rotate(55.0004)" xlink:href="#linear-gradient"/>
    <linearGradient id="linear-gradient-3" x1="-19.9699" y1="97.7043" x2="90.0918" y2="-34.5039" gradientTransform="translate(51.28 9.6915) rotate(55.0011)" xlink:href="#linear-gradient"/>
    <linearGradient id="linear-gradient-4" x1="11.1183" y1="123.5848" x2="121.1799" y2="-8.6234" gradientTransform="translate(84.533 -7.6169) rotate(55.002)" xlink:href="#linear-gradient"/>
    <linearGradient id="linear-gradient-5" x1="39.6087" y1="147.3027" x2="149.6703" y2="15.0945" gradientTransform="matrix(1, 0, 0, 1, 0, 0)" xlink:href="#linear-gradient"/>
    <linearGradient id="linear-gradient-6" x1="43.9032" y1="150.8778" x2="153.9648" y2="18.6696" gradientTransform="translate(133.6132 7.5979) rotate(55.0005)" xlink:href="#linear-gradient"/>
    <linearGradient id="linear-gradient-7" x1="72.5507" y1="174.7265" x2="182.6123" y2="42.5183" gradientTransform="translate(149.9295 -42.5889) rotate(55.0054)" xlink:href="#linear-gradient"/>
    <linearGradient id="linear-gradient-8" x1="27.9611" y1="137.6062" x2="138.0227" y2="5.398" gradientTransform="translate(109.7901 0.342) rotate(54.9892)" xlink:href="#linear-gradient"/>
    <linearGradient id="linear-gradient-9" x1="56.4514" y1="161.324" x2="166.513" y2="29.1158" gradientTransform="translate(125.7278 -50.2103) rotate(54.9907)" xlink:href="#linear-gradient"/>
    <linearGradient id="linear-gradient-10" x1="20.1675" y1="131.1182" x2="130.2291" y2="-1.09" gradientTransform="translate(57.8881 -99.404) rotate(55.0033)" xlink:href="#linear-gradient"/>
    <linearGradient id="linear-gradient-11" x1="16.6361" y1="128.1783" x2="126.6977" y2="-4.0299" gradientTransform="matrix(1, 0, 0, 1, 0, 0)" xlink:href="#linear-gradient"/>
  </defs>
  <title>teleport-logo-full-colour-rgb</title>
  <g id="full-rgb">
    <g id="type">
      <path id="type_CompoundPathItem_" data-name="type &lt;CompoundPathItem&gt;" d="M255.2691,37.6866q-17.6555,0-28.9148,11.49Q215.0913,60.6675,215.0931,77.71q0,17.35,11.414,28.6869,11.4136,11.3384,29.98,11.3358,22.0636,0,33.3262-16.5858L276.27,93.2325q-6.5455,9.4372-19.6315,9.4347-9.4378,0-15.9783-4.6416A20.8829,20.8829,0,0,1,232.29,84.71h60.5667a50.935,50.935,0,0,0,.6094-6.8483q0-16.7386-10.7284-28.4564T255.2691,37.6866ZM232.1382,71.3189a22.6371,22.6371,0,0,1,7.7609-13.6966q6.0844-5.0207,15.2172-5.0218a22.1513,22.1513,0,0,1,14.0768,4.7162q6.01,4.719,7.6854,14.0022Z" style="fill: #030163"/>
      <path id="type_PathItem_" data-name="type &lt;PathItem&gt;" d="M305.461,24.71v91.0444h16.4348V18.36l-12.5783,1.8763A4.5232,4.5232,0,0,0,305.461,24.71Z" style="fill: #030163"/>
      <path id="type_CompoundPathItem_2" data-name="type &lt;CompoundPathItem&gt;" d="M372.1982,37.6866q-17.6595,0-28.9138,11.49Q332.0214,60.6675,332.0231,77.71q0,17.35,11.41,28.6869,11.4135,11.3384,29.9815,11.3358,22.0595,0,33.3272-16.5858l-13.543-7.9142q-6.5441,9.4372-19.6342,9.4347-9.4378,0-15.9774-4.6416A20.8853,20.8853,0,0,1,349.2183,84.71h60.5649a50.5415,50.5415,0,0,0,.6112-6.8483q0-16.7386-10.7311-28.4564Q388.9359,37.6868,372.1982,37.6866ZM349.0646,71.3189a22.6513,22.6513,0,0,1,7.7618-13.6966q6.0843-5.0207,15.2172-5.0218A22.1508,22.1508,0,0,1,386.12,57.3167q6.0085,4.719,7.6855,14.0022Z" style="fill: #030163"/>
      <path id="type_CompoundPathItem_3" data-name="type &lt;CompoundPathItem&gt;" d="M463.2785,37.6866q-17.3461,0-26.6294,12.9359V39.6646H420.2124V140.0567l12.5866-1.8975a4.5246,4.5246,0,0,0,3.85-4.4736V104.9508q9.2805,12.7811,26.6294,12.7817a35.7953,35.7953,0,0,0,26.7839-11.564q11.1085-11.5662,11.11-28.4587,0-16.7393-11.11-28.3818A35.6887,35.6887,0,0,0,463.2785,37.6866Zm14.6106,57.4471a24.8138,24.8138,0,0,1-34.3921,0A23.7557,23.7557,0,0,1,436.6491,77.71a23.7585,23.7585,0,0,1,6.8479-17.4239,24.8127,24.8127,0,0,1,34.3921,0A23.7668,23.7668,0,0,1,484.7379,77.71,23.7639,23.7639,0,0,1,477.8891,95.1337Z" style="fill: #030163"/>
      <path id="type_CompoundPathItem_4" data-name="type &lt;CompoundPathItem&gt;" d="M549.5385,37.6866A39.01,39.01,0,0,0,521.08,49.2511,38.4251,38.4251,0,0,0,509.3644,77.71,38.4215,38.4215,0,0,0,521.08,106.1685a40.8917,40.8917,0,0,0,56.9919,0Q589.7164,94.6023,589.7136,77.71q0-16.8918-11.6414-28.4587A38.9363,38.9363,0,0,0,549.5385,37.6866Zm16.8924,57.2206a24.2578,24.2578,0,0,1-33.7838,0A23.3294,23.3294,0,0,1,525.7984,77.71a23.3237,23.3237,0,0,1,6.8487-17.1951,24.2565,24.2565,0,0,1,33.7838,0A23.323,23.323,0,0,1,573.2787,77.71,23.3287,23.3287,0,0,1,566.4309,94.9072Z" style="fill: #030163"/>
      <path id="type_PathItem_2" data-name="type &lt;PathItem&gt;" d="M615.4925,52.4486V39.6646H599.0558v76.09h16.4367V77.4065q0-11.7186,7-16.8173c4.6647-3.3968,8.7356-5.0986,16.4349-5.0986V39.6646C626.5927,39.6646,619.65,43.0117,615.4925,52.4486Z" style="fill: #030163"/>
      <path id="type_PathItem_3" data-name="type &lt;PathItem&gt;" d="M682.9223,101.0694q-4.186-.2265-6.314-2.2835-2.1345-2.0531-2.1317-6.7711V55.4906h15.8541V39.6641H674.4766V18.3593l-12.5774,1.8763a4.5254,4.5254,0,0,0-3.8575,4.4746V39.6641H646.971V55.4906h11.0707V92.0148q0,14.9163,8.2175,20.4677,8.2188,5.5536,27.0877,3.2721V100.9925A103.153,103.153,0,0,1,682.9223,101.0694Z" style="fill: #030163"/>
      <path id="type_PathItem_4" data-name="type &lt;PathItem&gt;" d="M197.3485,101.0694q-4.1861-.2265-6.3141-2.2835-2.1357-2.0531-2.1316-6.7711V55.4906h15.8541V39.6641H188.9028V18.3593l-12.5775,1.8763a4.5254,4.5254,0,0,0-3.8574,4.4746V39.6641H161.3963V55.4906h11.0716V92.0148q0,14.9163,8.2174,20.4677,8.2188,5.5536,27.0868,3.2721V100.9925A103.1326,103.1326,0,0,1,197.3485,101.0694Z" style="fill: #030163"/>
    </g>
    <g id="logoMark">
      <path id="logoMark_PathItem_" data-name="logoMark &lt;PathItem&gt;" d="M5.11,16.9341H17.5842a2.6612,2.6612,0,0,1,2.6612,2.6612V32.0684A2.6611,2.6611,0,0,1,17.5842,34.73H5.11A2.6606,2.6606,0,0,1,2.45,32.069V19.595A2.6609,2.6609,0,0,1,5.11,16.9341Z" transform="translate(-16.3216 20.3114) rotate(-55.0017)" style="fill: url(#linear-gradient)"/>
      <path id="logoMark_PathItem_2" data-name="logoMark &lt;PathItem&gt;" d="M91.0649,2.9226H101.23a2.8738,2.8738,0,0,1,2.8738,2.8738V15.9618a2.8739,2.8739,0,0,1-2.8739,2.8739H91.0645a2.8734,2.8734,0,0,1-2.8734-2.8734V5.7965a2.8738,2.8738,0,0,1,2.8738-2.8738Z" transform="translate(32.0884 83.3989) rotate(-55.0004)" style="fill: url(#linear-gradient-2)"/>
      <path id="logoMark_PathItem_3" data-name="logoMark &lt;PathItem&gt;" d="M12.76,48.1314h7.1444a2.3952,2.3952,0,0,1,2.3952,2.3952V57.67a2.3957,2.3957,0,0,1-2.3957,2.3957H12.7588a2.3948,2.3948,0,0,1-2.3948-2.3948V50.5272A2.3958,2.3958,0,0,1,12.76,48.1314Z" transform="translate(-37.3511 36.448) rotate(-55.0011)" style="fill: url(#linear-gradient-3)"/>
      <path id="logoMark_PathItem_4" data-name="logoMark &lt;PathItem&gt;" d="M44.4358,69.6479h10.293a2.5868,2.5868,0,0,1,2.5868,2.5868V82.5279a2.5869,2.5869,0,0,1-2.5869,2.5869H44.4355a2.5868,2.5868,0,0,1-2.5868-2.5868V72.2351a2.5872,2.5872,0,0,1,2.5872-2.5872Z" transform="translate(-42.2442 73.6157) rotate(-55.002)" style="fill: url(#linear-gradient-4)"/>
      <path id="logoMark_PathItem_5" data-name="logoMark &lt;PathItem&gt;" d="M109.4989,76.0649l5.9036-8.4319a2.5852,2.5852,0,0,0-.6355-3.6026l-8.432-5.9039a2.5863,2.5863,0,0,0-3.6026.6352L96.8289,67.194a2.5856,2.5856,0,0,0,.6352,3.6026l8.431,5.9039A2.5884,2.5884,0,0,0,109.4989,76.0649Z" style="fill: url(#linear-gradient-5)"/>
      <path id="logoMark_PathItem_6" data-name="logoMark &lt;PathItem&gt;" d="M56.932,127.32h5.1542a2.2346,2.2346,0,0,1,2.2346,2.2346v5.1534a2.2355,2.2355,0,0,1-2.2355,2.2355H56.9321a2.2351,2.2351,0,0,1-2.2351-2.2351v-5.1534a2.235,2.235,0,0,1,2.235-2.235Z" transform="translate(-82.8603 105.0923) rotate(-55.0005)" style="fill: url(#linear-gradient-6)"/>
      <path id="logoMark_PathItem_7" data-name="logoMark &lt;PathItem&gt;" d="M113.29,117.8832h5.1533a2.2347,2.2347,0,0,1,2.2347,2.2347v5.1538a2.235,2.235,0,0,1-2.235,2.235H113.29a2.2351,2.2351,0,0,1-2.2351-2.2351v-5.1527A2.2357,2.2357,0,0,1,113.29,117.8832Z" transform="translate(-51.0954 147.2479) rotate(-55.0054)" style="fill: url(#linear-gradient-7)"/>
      <path id="logoMark_PathItem_8" data-name="logoMark &lt;PathItem&gt;" d="M51.0281,99.5223h7.0763a2.5873,2.5873,0,0,1,2.5873,2.5873v7.0762a2.5872,2.5872,0,0,1-2.5872,2.5872H51.0286a2.5872,2.5872,0,0,1-2.5872-2.5872V102.109a2.5867,2.5867,0,0,1,2.5867-2.5867Z" transform="translate(-63.27 89.7267) rotate(-54.9892)" style="fill: url(#linear-gradient-8)"/>
      <path id="logoMark_PathItem_9" data-name="logoMark &lt;PathItem&gt;" d="M107.5614,89.5539h7.077a2.5868,2.5868,0,0,1,2.5868,2.5868v7.077a2.587,2.587,0,0,1-2.587,2.587h-7.0765a2.5868,2.5868,0,0,1-2.5868-2.5868V92.14A2.5865,2.5865,0,0,1,107.5614,89.5539Z" transform="translate(-31.0061 131.7846) rotate(-54.9907)" style="fill: url(#linear-gradient-9)"/>
      <path id="logoMark_PathItem_10" data-name="logoMark &lt;PathItem&gt;" d="M121.9.987h5.0281a2.3946,2.3946,0,0,1,2.3946,2.3946V8.4073a2.3959,2.3959,0,0,1-2.3959,2.3959h-5.0259a2.3954,2.3954,0,0,1-2.3954-2.3954V3.3815A2.3945,2.3945,0,0,1,121.9.987Z" transform="translate(48.2298 104.4322) rotate(-55.0033)" style="fill: url(#linear-gradient-10)"/>
      <path id="logoMark_PathItem_11" data-name="logoMark &lt;PathItem&gt;" d="M142.5421,29.9334l-13.6659-9.5686a2.66,2.66,0,0,0-3.706.6533l-8.9179,12.7351a2.6616,2.6616,0,0,1-3.7063.6538L100.75,26.1479a2.6613,2.6613,0,0,0-3.706.6533L88.84,38.5187a2.6609,2.6609,0,0,1-3.7061.6541l-12.6687-8.87a2.6617,2.6617,0,0,1-.6528-3.7069L79.4135,15.741a2.6608,2.6608,0,0,0-.6536-3.7066L67.7576,4.3309a2.6608,2.6608,0,0,0-3.7061.6536L56.3488,15.9863a2.6609,2.6609,0,0,0,.6538,3.7066l10.8546,7.6A2.6619,2.6619,0,0,1,68.5113,31L59.12,44.4111a2.6621,2.6621,0,0,1-3.7068.6534L44.548,37.4569a2.6611,2.6611,0,0,1-.6539-3.7061l9.3836-13.4017a2.6611,2.6611,0,0,0-.6541-3.7061L39.116,7.1832a2.6615,2.6615,0,0,0-3.7068.6535L25.95,21.3465a2.6608,2.6608,0,0,0,.6536,3.706l13.4007,9.3839a2.6611,2.6611,0,0,1,.653,3.7065l-7.7926,11.13a2.662,2.662,0,0,0,.6539,3.7068l11.2376,7.8686a2.6623,2.6623,0,0,0,3.7069-.6541l7.683-10.9724a2.66,2.66,0,0,1,3.7061-.6536L71.8531,56.97a2.6626,2.6626,0,0,1,.6541,3.7068L63.9184,72.9424a2.6606,2.6606,0,0,0,.6536,3.706l12.3443,8.6438a2.6622,2.6622,0,0,1,.6539,3.7063l-8.5338,12.1877a2.6605,2.6605,0,0,0,.6536,3.7063l13.6654,9.5686c.0078.0052.0178.0057.0262.011l.1184.0838a2.3361,2.3361,0,0,1,.575,3.2538l-6.6731,9.528a2.3351,2.3351,0,0,0,.5734,3.2537l9.6582,6.7624a2.3369,2.3369,0,0,0,3.2532-.5739l6.7617-9.6577a2.337,2.337,0,0,0-.5739-3.2534l-9.5283-6.6716a2.3365,2.3365,0,0,1-.5739-3.254l3.926-5.6065-.004-.0015,5.7365-8.1936a2.6614,2.6614,0,0,0-.653-3.7066L83.7909,87.9018a2.6616,2.6616,0,0,1-.6541-3.7066l8.6425-12.3438a2.6614,2.6614,0,0,0-.6538-3.7065L78.86,59.5558a2.6606,2.6606,0,0,1-.6528-3.706L86.09,44.593a2.6609,2.6609,0,0,1,3.7061-.6533l11.7167,8.2046a2.6624,2.6624,0,0,0,3.7071-.6536l8.2585-11.7953a2.6618,2.6618,0,0,1,3.7069-.6536L129.92,47.9592a2.6606,2.6606,0,0,0,3.706-.6531l9.57-13.6664A2.6605,2.6605,0,0,0,142.5421,29.9334Z" style="fill: url(#linear-gradient-11)"/>
    </g>
  </g>
</svg>
