<svg width="147" height="206" viewBox="0 0 147 206" fill="none" xmlns="http://www.w3.org/2000/svg">
<path d="M128.94 176.048C140.46 176.048 146.22 180.944 146.22 190.736C146.22 200.912 140.46 206 128.94 206H19.4996C14.5076 206 10.5716 204.56 7.69163 201.68C4.81163 198.608 3.37163 194.864 3.37163 190.448C3.37163 184.688 5.57963 179.504 9.99563 174.896L75.6596 104.336C83.7236 95.504 89.5796 87.44 93.2276 80.144C97.0676 72.656 98.9876 65.264 98.9876 57.968C98.9876 48.944 96.3956 42.032 91.2116 37.232C86.0276 32.432 78.6356 30.032 69.0356 30.032C61.1636 30.032 53.4836 31.568 45.9956 34.64C38.6996 37.52 31.3076 41.552 23.8196 46.736C21.8996 48.08 19.9796 49.232 18.0596 50.192C16.1396 50.96 14.2196 51.344 12.2996 51.344C9.03563 51.344 6.15563 49.808 3.65963 46.736C1.35563 43.664 0.203626 40.016 0.203626 35.792C0.203626 32.912 0.683626 30.416 1.64363 28.304C2.79563 26.192 4.52363 24.176 6.82763 22.256C15.2756 15.536 25.1636 10.256 36.4916 6.41599C47.8196 2.38399 59.1476 0.367987 70.4756 0.367987C90.2516 0.367987 105.996 5.35999 117.708 15.344C129.612 25.328 135.564 38.768 135.564 55.664C135.564 67.376 133.068 78.416 128.076 88.784C123.084 98.96 114.636 110.384 102.732 123.056L52.9076 176.048H128.94Z" fill="#F7F9FA"/>
</svg>
