<svg width="135" height="205" viewBox="0 0 135 205" fill="none" xmlns="http://www.w3.org/2000/svg">
<path d="M116.944 175.048C128.464 175.048 134.224 179.944 134.224 189.736C134.224 199.912 128.464 205 116.944 205H19.6003C7.88825 205 2.03225 199.912 2.03225 189.736C2.03225 179.944 7.88825 175.048 19.6003 175.048H49.5523V43.72L21.9043 60.712C19.2163 62.248 16.8163 63.016 14.7043 63.016C10.6723 63.016 7.21625 61.288 4.33625 57.832C1.64825 54.376 0.30425 50.536 0.30425 46.312C0.30425 40.744 2.80025 36.424 7.79225 33.352L52.4323 5.70399C58.1923 2.24799 63.6643 0.519989 68.8483 0.519989C74.2243 0.519989 78.5443 2.15199 81.8083 5.41599C85.0723 8.67999 86.7043 13.192 86.7043 18.952V175.048H116.944Z" fill="#F7F9FA"/>
</svg>
