<svg width="144" height="209" viewBox="0 0 144 209" fill="none" xmlns="http://www.w3.org/2000/svg">
<path d="M106.16 101.744C118.256 104.816 127.472 110.672 133.808 119.312C140.336 127.76 143.6 138.32 143.6 150.992C143.6 168.464 137.168 182.384 124.304 192.752C111.44 203.12 94.0643 208.304 72.1763 208.304C59.6963 208.304 47.6963 206.384 36.1763 202.544C24.6563 198.704 14.8643 193.328 6.80025 186.416C2.38425 182.576 0.176251 178.064 0.176251 172.88C0.176251 168.656 1.32825 165.104 3.63225 162.224C6.12825 159.152 9.00825 157.616 12.2723 157.616C14.1923 157.616 15.9203 158 17.4563 158.768C18.9923 159.344 21.1043 160.4 23.7923 161.936C31.8563 167.312 39.5363 171.44 46.8323 174.32C54.1283 177.2 62.0963 178.64 70.7363 178.64C83.4083 178.64 92.8163 176.144 98.9603 171.152C105.104 165.968 108.176 158.192 108.176 147.824C108.176 137.648 104.912 130.16 98.3843 125.36C92.0483 120.368 82.1603 117.872 68.7203 117.872H52.3043C47.8883 117.872 44.4323 116.432 41.9363 113.552C39.6323 110.48 38.4803 107.024 38.4803 103.184C38.4803 99.152 39.6323 95.696 41.9363 92.816C44.4323 89.936 47.8883 88.496 52.3043 88.496H63.8243C90.1283 88.496 103.28 78.608 103.28 58.832C103.28 49.616 100.496 42.512 94.9283 37.52C89.3603 32.528 81.6803 30.032 71.8883 30.032C57.8723 30.032 42.8963 35.6 26.9603 46.736C24.2723 48.272 22.1603 49.424 20.6243 50.192C19.0883 50.768 17.3603 51.056 15.4403 51.056C12.1763 51.056 9.29625 49.616 6.80025 46.736C4.49625 43.664 3.34425 40.016 3.34425 35.792C3.34425 32.912 3.82425 30.512 4.78425 28.592C5.93625 26.48 7.66425 24.368 9.96825 22.256C18.0323 15.536 27.6323 10.256 38.7683 6.41599C50.0963 2.38399 61.6163 0.367987 73.3282 0.367987C93.2963 0.367987 109.136 5.26399 120.848 15.056C132.752 24.848 138.704 37.904 138.704 54.224C138.512 65.36 135.536 75.152 129.776 83.6C124.208 91.856 116.336 97.904 106.16 101.744Z" fill="#F7F9FA"/>
</svg>
