<svg width="20" height="16" viewBox="0 0 20 16" fill="none" xmlns="http://www.w3.org/2000/svg">
<path d="M17.9999 4L9.99991 9L1.99991 4V2L9.99991 7L17.9999 2V4ZM17.9999 0H1.99991C0.889908 0 -9.15527e-05 0.89 -9.15527e-05 2V14C-9.15527e-05 14.5304 0.210622 15.0391 0.585695 15.4142C0.960768 15.7893 1.46948 16 1.99991 16H17.9999C18.5303 16 19.039 15.7893 19.4141 15.4142C19.7892 15.0391 19.9999 14.5304 19.9999 14V2C19.9999 1.46957 19.7892 0.960859 19.4141 0.585786C19.039 0.210714 18.5303 0 17.9999 0Z" fill="#A1A0CF"/>
</svg>
